<svg width="359" height="397" viewBox="0 0 359 397" fill="none" xmlns="http://www.w3.org/2000/svg">
<path d="M238.771 386.2C213.45 373.859 191.39 354.792 162.774 350.055C134.661 345.402 104.977 355.367 75.8734 358.75C46.7605 362.131 12.8833 355.68 2.78961 330.623C-7.21975 305.771 11.3771 276.419 32.0502 255.381C52.7198 234.338 77.7127 214.144 85.1564 186.948C92.9207 158.585 79.2649 131.386 68.7854 105.502C58.2926 79.6103 51.6723 47.4305 70.492 23.3794C88.1815 0.765766 122.375 -4.59231 148.406 3.65099C174.437 11.8943 194.298 30.5871 213.631 48.5177C232.957 66.4523 253.551 84.6409 280.156 91.4583C295.365 95.3614 311.835 95.3143 326.961 99.4325C338.755 102.637 352.333 111.368 355.598 119.338C372.212 159.96 301.586 173.849 317.713 252.821C321.862 273.138 330.169 300.649 334.692 320.857C339.223 341.076 337.469 365.246 321.349 381.168C299.803 402.446 264.109 398.539 238.784 386.192L238.771 386.2Z" fill="#77A766"/>
</svg>
