<svg width="186" height="131" viewBox="0 0 186 131" fill="none" xmlns="http://www.w3.org/2000/svg">
<path d="M184.888 95.7351C180.711 115.686 161.89 132.891 141.735 130.832C124.023 129.027 110.693 114.341 99.3647 100.517C88.0392 86.6941 75.2579 71.7313 57.6646 68.9812C47.3962 67.3765 36.7697 70.2661 26.5736 68.2486C15.0863 65.9753 5.13281 57.0825 1.53095 45.8698C-2.0738 34.6601 0.820403 21.584 8.80978 12.9703C16.1753 5.02522 27.0762 1.15879 37.8355 0.248869C48.5949 -0.66105 59.3832 1.08902 70.0385 2.83328C86.2368 5.48745 102.432 8.13872 118.63 10.7929C137.495 13.8831 154.776 23.4533 167.196 38.073C167.485 38.4131 167.774 38.7591 168.06 39.105C181.018 54.783 189.07 75.7838 184.888 95.7351Z" fill="#ECD13E"/>
</svg>
